<svg width="68" height="60" viewBox="0 0 68 60" fill="none" xmlns="http://www.w3.org/2000/svg">
<g clip-path="url(#clip0_138_575)">
<path d="M34.7089 15.8604C33.0184 16.1082 31.5733 16.301 30.1555 16.5213C29.2285 16.6589 28.765 17.2372 28.5741 18.1459C28.2197 19.798 27.8107 21.4501 27.3745 23.0747C26.8292 25.1399 25.3296 26.1587 23.5846 25.7181C21.8668 25.2776 21.0489 23.653 21.5397 21.5878C22.1668 18.8618 22.8484 16.1633 23.4755 13.4373C23.83 11.9504 24.6752 10.9866 26.1475 10.6562C28.9831 10.0229 31.8187 9.38954 34.6543 8.86637C35.1178 8.78376 35.6632 9.2794 36.1812 9.49968C35.7995 9.91272 35.4723 10.5736 35.036 10.6837C32.364 11.3446 29.6375 11.9504 26.9382 12.4735C26.0112 12.6663 25.4931 13.1344 25.3023 14.0431C24.6752 16.6589 24.0208 19.3023 23.421 21.9182C23.2301 22.6892 23.0938 23.5979 24.1571 23.7906C25.1114 23.9834 25.3296 23.1573 25.5204 22.4139C25.9294 20.7342 26.3384 19.027 26.7746 17.3473C27.1563 15.8053 28.1106 14.8691 29.6648 14.5938C31.4643 14.2909 33.2365 14.0155 35.036 13.7677C36.5902 13.5474 36.9446 13.8778 36.7265 15.4749C36.3993 18.0632 36.1539 20.6791 35.6086 23.2124C34.8997 26.4065 35.1996 29.518 36.0176 32.5745C36.5902 34.7498 36.3448 36.6222 35.3087 38.6048C33.9182 41.2757 32.773 44.0844 31.5188 46.8379C31.4097 47.0857 31.2734 47.3336 31.1916 47.5814C30.8644 48.4074 30.9735 49.2886 31.8733 49.4813C32.3913 49.5915 33.4001 49.261 33.6182 48.7929C35.6086 45.1582 37.4899 41.4409 39.3713 37.7236C39.5621 37.3381 39.5894 36.8425 39.5894 36.4019C39.6984 33.7861 39.753 31.1702 39.862 28.5543C39.9166 27.2051 40.5982 26.8471 41.7433 27.563C43.4338 28.6369 45.1515 29.7108 46.7329 30.8948C47.2237 31.2528 47.6054 32.0513 47.6327 32.6846C47.7963 35.9338 47.8508 39.183 47.9053 42.4598C47.9326 43.3409 47.9599 44.2496 49.105 44.222C50.2502 44.222 50.2774 43.3134 50.2774 42.4322C50.2502 38.77 50.3047 35.0802 50.1684 31.418C50.1411 30.647 49.7049 29.7383 49.1595 29.2152C47.3873 27.5079 45.4242 25.9935 43.6519 24.3138C43.2157 23.9008 42.8885 23.0196 42.9976 22.4414C43.3247 20.5414 43.7883 18.669 44.3336 16.8517C44.4699 16.3836 45.1515 16.1082 45.5605 15.7227C45.7786 16.2459 46.2149 16.7966 46.1331 17.2923C45.8877 18.8342 45.3696 20.3212 45.1243 21.8356C45.0425 22.3313 45.2606 23.1023 45.6423 23.4602C47.3055 25.0297 49.1323 26.4065 50.7409 28.0036C51.4226 28.692 51.9951 29.7659 52.0497 30.7021C52.2405 34.7223 52.2678 38.77 52.2678 42.8177C52.2678 44.8003 51.0136 46.1495 49.2413 46.2321C47.5509 46.3147 46.2694 45.1307 46.024 43.2032C45.9695 42.7076 45.9422 42.1844 45.9422 41.6888C45.8877 39.128 45.8332 36.5396 45.8604 33.9788C45.8604 32.9325 45.5605 32.2441 44.6335 31.776C43.7337 31.3079 42.8885 30.6745 41.6616 29.9035C41.6616 31.9136 41.6343 33.5382 41.6616 35.1628C41.6888 36.9526 41.3071 38.5497 40.4073 40.1468C38.6624 43.3134 37.081 46.5626 35.3905 49.7567C34.5725 51.2711 33.1547 51.932 31.6279 51.574C30.3191 51.2711 29.174 50.0871 29.1194 48.6553C29.0922 47.8843 29.3376 47.0307 29.6648 46.2872C31.0826 43.0655 32.6094 39.899 34 36.6498C34.3271 35.8788 34.4089 34.8875 34.2999 34.0339C34.109 32.4093 33.4274 30.7847 33.4274 29.1876C33.4274 26.4616 33.7546 23.7356 34.0272 21.0371C34.1636 19.385 34.4635 17.7328 34.7089 15.8604Z" fill="#22637E"/>
<path d="M21.1852 59.2014C19.522 58.8986 18.0497 58.816 16.7137 58.3478C13.8236 57.329 12.8693 54.603 14.3416 51.9045C15.2959 50.1147 16.7955 48.7655 18.595 47.9669C21.6215 46.6177 24.7025 45.4061 27.8107 44.2221C28.1924 44.0844 28.7923 44.525 29.2831 44.6902C29.0104 45.1308 28.8468 45.8192 28.4378 45.9844C26.0112 47.0307 23.5028 47.8293 21.1307 48.9582C19.522 49.7292 17.9134 50.7205 16.6864 51.9871C14.6688 54.0798 15.4322 56.145 18.2406 56.8059C20.9944 57.4392 23.6936 56.9435 26.2839 56.0073C34.1908 53.1712 42.0433 50.2249 49.8957 47.2785C53.0858 46.0945 56.3031 44.9105 59.3841 43.5062C61.2927 42.625 63.0649 41.3859 64.7827 40.1193C65.7097 39.4584 66.3641 38.357 65.9823 37.1179C65.6006 35.8238 64.4009 35.1629 63.2285 35.218C60.7746 35.3556 58.3207 35.7687 55.8669 36.1266C55.4306 36.1817 54.9944 36.5121 54.5581 36.4571C54.1491 36.402 53.5493 36.1542 53.413 35.8238C53.3039 35.5484 53.6856 34.7774 53.9855 34.6948C57.2847 33.7586 60.5838 32.5195 64.101 33.3731C68.109 34.3644 69.2269 37.9991 66.5276 41.1381C64.6463 43.3134 62.1924 44.6076 59.575 45.5989C49.2686 49.564 38.9623 53.5016 28.6287 57.329C26.2021 58.1551 23.5846 58.5957 21.1852 59.2014Z" fill="#22637E"/>
<path d="M13.1421 34.9701C13.4147 34.5295 13.7147 34.0614 13.9873 33.6209C14.7235 32.4644 15.7596 31.8311 17.1774 31.8861C19.0042 31.9412 20.2311 33.4557 19.7676 35.2455C19.5767 35.9889 19.1677 36.6773 18.786 37.3657C17.6409 39.4033 17.9408 40.8627 19.8221 42.2395C20.3402 42.625 20.9673 42.8177 21.4308 43.2583C21.7034 43.5061 21.9488 44.167 21.8398 44.3597C21.6216 44.6902 21.0218 45.0206 20.6673 44.938C16.8774 44.0293 15.1325 39.899 17.0683 36.4846C17.2592 36.1266 17.5863 35.7962 17.6409 35.4107C17.6954 34.9426 17.5591 34.4194 17.4773 33.9238C16.9865 34.0339 16.4139 34.0064 16.005 34.2542C15.6505 34.4745 15.4869 34.9701 15.2415 35.3556C14.5599 36.4295 13.7147 37.2556 12.3514 36.8425C10.9881 36.4295 10.5246 35.3005 10.6882 34.0339C10.8518 32.7948 11.2608 31.5557 11.6697 30.3717C11.9969 29.4079 12.5695 28.4442 11.697 27.563C10.8518 26.6819 9.7339 26.9022 8.75235 27.3428C5.67135 28.8021 3.8173 31.3629 2.94481 34.5846C1.19982 41.083 1.6906 47.4162 4.79886 53.3914C5.67135 55.0711 7.11642 56.4203 8.2343 57.9623C8.53422 58.4029 8.86141 59.2289 8.67055 59.5318C8.17977 60.3028 7.5254 59.8898 6.95283 59.3942C4.63527 57.329 2.99934 54.7682 1.93599 51.8494C-0.327042 45.6264 -0.736024 39.3207 1.47248 33.0151C2.69942 29.463 4.93519 26.6819 8.58876 25.3327C10.2792 24.7269 11.9697 24.8646 13.2239 26.2964C14.5054 27.7007 14.26 29.2978 13.5511 30.9224C13.1966 31.7209 12.8694 32.5194 12.6513 33.3455C12.515 33.8136 12.624 34.3643 12.624 34.8875C12.7876 34.915 12.9785 34.9426 13.1421 34.9701Z" fill="#22637E"/>
<path d="M47.1419 5.50711C47.1419 8.61863 44.7698 10.9592 41.6888 10.9316C38.7169 10.9041 36.3448 8.50849 36.3175 5.53465C36.2903 2.50574 38.7442 0.0275356 41.7434 0C44.7698 0 47.1419 2.42313 47.1419 5.50711ZM38.3079 5.45204C38.3079 7.37953 39.8075 8.97659 41.7161 9.03167C43.5974 9.08674 45.3151 7.352 45.2879 5.45204C45.2606 3.55209 43.6792 1.98256 41.7706 1.95503C39.8348 1.95503 38.3079 3.49702 38.3079 5.45204Z" fill="#22637E"/>
<path d="M51.2317 22.414C50.0866 22.414 48.9414 22.4966 47.8235 22.3589C47.36 22.3038 46.9783 21.7531 46.5421 21.4502C46.9783 21.0923 47.3873 20.4865 47.8508 20.459C49.9775 20.3488 52.1042 20.459 54.2582 20.3763C54.749 20.3488 55.2125 19.8256 55.676 19.5227C55.2125 19.2199 54.7762 18.6691 54.2855 18.6416C52.7041 18.5315 51.0954 18.6691 49.514 18.559C48.9687 18.5039 48.2325 18.0634 47.9871 17.5677C47.0601 15.7779 46.2421 13.933 45.506 12.0606C45.3424 11.6476 45.4515 10.7664 45.7514 10.5461C46.3785 10.078 46.9238 10.5461 47.2237 11.2345C47.8781 12.6939 48.587 14.1258 49.1868 15.6127C49.4867 16.3837 49.9503 16.659 50.7409 16.604C51.8861 16.5489 53.004 16.5764 54.1491 16.5764C56.3304 16.5764 57.7209 17.7329 57.6936 19.4952C57.6664 21.2299 56.3304 22.3314 54.2309 22.3589C53.2494 22.4415 52.2405 22.414 51.2317 22.414Z" fill="#22637E"/>
<path d="M14.5052 20.1836C14.4234 21.5879 13.9871 22.1937 12.9783 22.2213C11.9968 22.2488 11.4514 21.7256 11.3969 20.7619C11.3424 19.7155 11.9695 19.0271 12.9238 19.1373C13.5781 19.1923 14.1235 19.9083 14.5052 20.1836Z" fill="#22637E"/>
<path d="M8.15237 19.385C8.64315 20.156 9.13392 20.5966 9.07939 20.9821C9.02486 21.34 8.42502 21.8907 8.04331 21.8907C7.74339 21.8907 7.17081 21.2574 7.14355 20.8719C7.11628 20.514 7.63433 20.1009 8.15237 19.385Z" fill="#22637E"/>
</g>
<defs>
<clipPath id="clip0_138_575">
<rect width="68" height="60" fill="white"/>
</clipPath>
</defs>
</svg>
