<svg width="58" height="58" viewBox="0 0 58 58" fill="none" xmlns="http://www.w3.org/2000/svg">
<g clip-path="url(#clip0_138_556)">
<path d="M44.7093 19.0544C41.9222 19.0544 39.2502 19.0544 36.5783 19.0544C34.6895 19.0544 33.5838 17.9158 33.5838 16.0336C33.5838 14.2211 34.6895 13.036 36.5092 13.036C40.425 13.0127 44.3408 13.0127 48.2566 13.036C51.3431 13.0592 53.4853 15.7315 52.8173 18.7523C51.8729 23.0047 50.9055 27.2571 49.9381 31.5095C49.3852 33.9262 47.888 35.4134 45.4925 35.9943C44.4559 36.2499 43.3503 36.3429 42.3598 36.7379C41.6688 37.0168 40.7474 37.5047 40.5401 38.1321C39.3193 41.4551 38.2828 44.8477 37.1311 48.3333C38.5822 48.3333 39.8491 48.3333 41.0929 48.3333C41.7379 48.3333 42.2907 48.4959 42.2907 49.2395C42.2907 49.9831 41.784 50.1922 41.116 50.1922C32.4091 50.1922 23.6791 50.1922 14.9722 50.1922C14.3273 50.1922 13.7744 50.0528 13.7744 49.286C13.7744 48.4494 14.3733 48.3333 15.0413 48.3333C17.5751 48.3333 20.1088 48.3333 22.6426 48.3333C23.0111 48.3333 23.3567 48.3333 23.7252 48.3333C23.7252 48.2635 23.7482 48.2171 23.7482 48.1474C20.4774 47.2876 17.1835 46.4046 13.9127 45.5448C10.8952 44.7547 9.32885 42.8028 9.21368 39.5728C9.7665 39.5728 10.3424 39.5728 10.9873 39.5728C11.0564 39.8284 11.1486 40.1073 11.1716 40.4094C11.4019 41.9663 12.2312 43.1049 13.7514 43.4999C19.2796 45.0103 24.8308 46.451 30.5203 47.9615C30.9349 46.7531 31.3265 45.6145 31.7181 44.4526C32.8698 40.8974 34.0445 37.3421 35.1732 33.7635C35.7721 31.8813 36.9238 30.6265 38.8817 30.4406C41.7149 30.185 43.0739 28.7676 43.3273 25.9094C43.5115 24.0039 44.1335 22.145 44.525 20.2627C44.6402 19.9142 44.6402 19.5889 44.7093 19.0544ZM35.1501 48.31C35.2653 47.9615 35.3574 47.6826 35.4726 47.3805C36.4401 44.3597 37.4305 41.3621 38.3749 38.3413C38.9738 36.3893 40.1946 35.181 42.1986 34.786C43.166 34.6001 44.1565 34.3677 45.1239 34.1353C46.7133 33.7403 47.7498 32.7411 48.1184 31.1145C49.0858 26.8621 50.0302 22.6097 50.9746 18.3573C51.3662 16.5913 50.2836 14.9647 48.5099 14.9182C44.525 14.8252 40.5171 14.8717 36.5322 14.895C35.7721 14.895 35.4265 15.3365 35.4265 16.0801C35.4265 16.8469 35.8412 17.2187 36.5783 17.2187C36.8547 17.2187 37.108 17.2187 37.3845 17.2187C40.7244 17.2187 44.0644 17.2419 47.4043 17.2419C48.0953 17.2419 48.7864 17.2884 48.8324 18.1946C48.8785 19.0544 48.2105 19.2171 47.5655 19.1241C46.7133 19.0312 46.6442 19.5889 46.506 20.1698C45.8841 23.0047 45.3082 25.8397 44.6402 28.6514C44.2486 30.3477 43.0969 31.3701 41.4615 31.8349C40.7935 32.0208 40.1255 32.2067 39.4345 32.2764C38.0755 32.439 37.3614 33.1826 36.9468 34.4839C35.5648 38.8292 34.1366 43.1281 32.7316 47.4735C32.6394 47.7523 32.6164 48.0312 32.5473 48.3565C33.4226 48.31 34.2288 48.31 35.1501 48.31Z" fill="#22637E"/>
<path d="M28.1938 15.8246C30.359 17.6371 32.386 19.3566 34.413 21.0529C34.6433 21.2621 34.8967 21.448 35.1271 21.6571C35.6569 22.1219 36.3018 22.6331 35.6338 23.3767C34.9658 24.1203 34.39 23.5161 33.8602 23.0746C33.3304 22.6331 32.8006 22.1916 32.2708 21.7501C30.5433 20.2861 28.8157 18.7989 27.0421 17.3815C26.5814 17.0097 25.8904 16.7541 25.3145 16.7541C19.6251 16.7076 13.9587 16.7308 8.26925 16.7308C7.85463 16.7308 7.44002 16.7308 6.9563 16.7308C6.9563 16.1034 6.9563 15.5457 6.9563 14.8719C7.39395 14.8719 7.80856 14.8719 8.22318 14.8719C13.9126 14.8719 19.579 14.8951 25.2684 14.8486C25.9364 14.8486 26.6966 14.5698 27.2264 14.1515C29.4376 12.5017 31.6028 10.7589 33.7911 9.03933C33.9754 8.8999 34.1596 8.64429 34.3439 8.64429C34.8046 8.62106 35.2883 8.714 35.749 8.76048C35.6569 9.20199 35.726 9.82939 35.4495 10.0618C34.2518 11.1307 32.9388 12.1066 31.6719 13.1058C30.5433 13.9888 29.4146 14.8486 28.1938 15.8246Z" fill="#22637E"/>
<path d="M52.5179 0C55.6045 0 58.0231 2.50962 58 5.64663C57.977 8.73718 55.4893 11.1771 52.3797 11.1538C49.3622 11.1306 46.9436 8.64423 46.9667 5.57692C46.9436 2.4399 49.4083 0 52.5179 0ZM56.1573 5.60016C56.1803 3.625 54.4988 1.88221 52.5409 1.85897C50.537 1.83574 48.7864 3.57853 48.8094 5.60016C48.8324 7.57532 50.5369 9.27164 52.4949 9.27164C54.4297 9.27164 56.1343 7.57532 56.1573 5.60016Z" fill="#22637E"/>
<path d="M29.5528 57.6282C27.641 57.6282 25.7061 57.6282 23.7943 57.6282C23.1032 57.6282 22.5274 57.4655 22.5504 56.629C22.5734 55.8854 23.1493 55.746 23.7943 55.7692C27.7101 55.7692 31.6259 55.7692 35.5417 55.7692C36.1866 55.7692 36.7394 55.8854 36.7855 56.6522C36.8316 57.4887 36.2327 57.6514 35.5417 57.6282C33.5377 57.6049 31.5568 57.6282 29.5528 57.6282Z" fill="#22637E"/>
<path d="M47.7498 52.0514C49.6616 52.0514 51.5965 52.0514 53.5083 52.0514C54.1533 52.0514 54.7061 52.1676 54.7522 52.9344C54.7983 53.7709 54.1994 53.9104 53.5083 53.9104C49.5925 53.9104 45.6767 53.9104 41.7609 53.9104C41.116 53.9104 40.5631 53.7942 40.5171 53.0273C40.471 52.1908 41.0699 52.0282 41.7609 52.0514C43.7649 52.0514 45.7458 52.0514 47.7498 52.0514Z" fill="#22637E"/>
<path d="M50.3066 50.1923C48.6482 50.1923 47.0127 50.1923 45.3543 50.1923C44.6863 50.1923 44.1104 49.9599 44.2486 49.2396C44.3177 48.891 44.9397 48.3798 45.3082 48.3798C48.6942 48.3101 52.0572 48.3333 55.4432 48.3333C56.1112 48.3333 56.618 48.5424 56.5949 49.286C56.5719 50.0296 56.0191 50.1923 55.3741 50.1923C53.6926 50.169 51.9881 50.1923 50.3066 50.1923Z" fill="#22637E"/>
<path d="M20.915 52.0514C22.4122 52.0514 23.9094 52.0514 25.4067 52.0514C26.0516 52.0514 26.6044 52.1676 26.6505 52.9344C26.6966 53.7709 26.0977 53.9336 25.4067 53.9104C22.4122 53.9104 19.4178 53.9104 16.4233 53.9104C15.7784 53.9104 15.2256 53.7942 15.1795 53.0273C15.1334 52.1908 15.7323 52.0282 16.4233 52.0514C17.9206 52.0514 19.4178 52.0514 20.915 52.0514Z" fill="#22637E"/>
<path d="M7.46304 52.0514C8.96026 52.0514 10.4575 52.0514 11.9547 52.0514C12.6227 52.0514 13.2676 52.0979 13.2907 52.9576C13.3137 53.7942 12.7148 53.9336 12.0238 53.9104C9.02936 53.9104 6.03492 53.9104 3.04048 53.9104C2.39553 53.9104 1.84271 53.7709 1.81967 53.0041C1.79664 52.1676 2.39553 52.0282 3.08655 52.0514C4.5377 52.0514 6.01189 52.0514 7.46304 52.0514Z" fill="#22637E"/>
<path d="M47.7268 55.7693C49.0628 55.7693 50.4218 55.7693 51.7578 55.7693C52.4257 55.7693 53.0016 56.0017 52.8634 56.722C52.7943 57.0706 52.1724 57.5818 51.8038 57.5818C49.0397 57.6515 46.2756 57.605 43.5115 57.6283C42.8435 57.6283 42.3368 57.4191 42.3598 56.6755C42.3829 55.9087 42.9357 55.7693 43.5806 55.7925C44.9627 55.7693 46.3447 55.7693 47.7268 55.7693Z" fill="#22637E"/>
<path d="M4.12312 48.3333C5.11359 48.3333 6.12709 48.2404 7.11756 48.3798C7.50914 48.4263 7.85465 48.9375 8.2232 49.2396C7.87768 49.5649 7.53217 50.1226 7.16363 50.1458C5.13662 50.2388 3.08658 50.2388 1.05958 50.1458C0.667995 50.1226 0.0691068 49.6346 4.32506e-06 49.2861C-0.138201 48.5657 0.460687 48.3333 1.12868 48.3333C2.14218 48.3333 3.13265 48.3333 4.12312 48.3333Z" fill="#22637E"/>
<path d="M35.3344 53.9103C34.5973 53.9103 33.8602 54.0032 33.1692 53.8638C32.8007 53.7941 32.5243 53.3061 32.2018 52.9808C32.5243 52.6787 32.8237 52.121 33.1462 52.0978C34.6664 52.0048 36.2097 52.0048 37.73 52.0978C38.0525 52.121 38.5131 52.6555 38.5822 53.0273C38.6283 53.2364 38.0755 53.7941 37.753 53.8406C36.9468 53.98 36.1406 53.8871 35.3344 53.9103C35.3344 53.8871 35.3344 53.8871 35.3344 53.9103Z" fill="#22637E"/>
<path d="M10.5957 55.7691C11.3328 55.7691 12.0699 55.6762 12.784 55.8156C13.1525 55.8853 13.452 56.3733 13.7744 56.6754C13.452 56.9775 13.1525 57.5584 12.83 57.5816C11.3328 57.6746 9.83559 57.6746 8.33837 57.5816C7.99286 57.5584 7.67038 57.0239 7.3479 56.7218C7.67038 56.4198 7.94679 55.8853 8.31533 55.8156C9.02939 55.6762 9.81255 55.7691 10.5957 55.7691Z" fill="#22637E"/>
<path d="M18.0357 57.605C17.5059 57.605 16.9301 57.6979 16.4233 57.5585C16.1009 57.4656 15.6402 57.0008 15.6862 56.7452C15.7323 56.3967 16.1469 55.839 16.4233 55.8157C17.5751 55.6995 18.7268 55.7228 19.8785 55.8157C20.1549 55.839 20.6386 56.3734 20.6156 56.629C20.5695 56.9776 20.2009 57.4656 19.8554 57.5585C19.2796 57.7212 18.6577 57.605 18.0357 57.605Z" fill="#22637E"/>
<path d="M29.4146 54.3518C29 53.6547 28.5393 53.2364 28.6084 52.9343C28.6775 52.5858 29.1843 52.1675 29.5528 52.121C29.7832 52.0978 30.313 52.6787 30.313 52.9808C30.2899 53.3294 29.8523 53.6779 29.4146 54.3518Z" fill="#22637E"/>
<path d="M10.9873 47.8687C11.448 48.5425 11.8626 48.9143 11.8626 49.2629C11.8626 49.565 11.3098 50.1459 11.1025 50.0994C10.7339 50.0297 10.2272 49.6114 10.1811 49.2861C10.112 48.984 10.5497 48.5658 10.9873 47.8687Z" fill="#22637E"/>
<path d="M5.87369 56.6057C5.32087 57.0704 4.97536 57.5816 4.69895 57.5352C4.3304 57.4887 4.00793 57.024 3.66241 56.7451C3.96186 56.4198 4.23827 55.9086 4.58378 55.8389C4.86019 55.7691 5.25177 56.2107 5.87369 56.6057Z" fill="#22637E"/>
<path d="M39.6418 58.0001C39.1811 57.4424 38.6743 57.0939 38.7204 56.7918C38.7665 56.42 39.2271 56.0947 39.5036 55.7461C39.826 56.0482 40.3328 56.327 40.4019 56.6756C40.494 57.0009 40.0333 57.3959 39.6418 58.0001Z" fill="#22637E"/>
</g>
<defs>
<clipPath id="clip0_138_556">
<rect width="58" height="58" fill="white"/>
</clipPath>
</defs>
</svg>
