<svg width="60" height="58" viewBox="0 0 60 58" fill="none" xmlns="http://www.w3.org/2000/svg">
<g clip-path="url(#clip0_138_638)">
<path d="M15.7539 48.6623C14.8218 48.1109 13.8715 47.5951 12.9759 47.0082C9.22937 44.5715 6.23211 41.4234 4.09383 37.546C3.39934 36.301 2.83278 34.9671 2.5952 33.562C2.46726 32.8683 2.43071 32.1569 2.44899 31.4632C2.50382 29.1511 2.79623 26.8567 3.1983 24.5623C3.28968 23.9931 3.38106 23.424 3.509 22.8726C3.83796 21.4142 4.09383 21.0051 5.22694 20.0091C0.731048 17.7503 0.328977 12.5923 2.5952 9.63987C4.9528 6.58069 9.2842 5.81589 12.4642 7.98578C14.3101 9.24858 15.3701 10.9738 15.5711 13.1437C15.7539 15.2958 15.0411 17.1811 13.4877 18.7463C14.2918 18.2483 14.9132 17.5724 15.5163 16.8788C17.3622 14.7267 18.9887 12.4323 20.4691 10.0312C20.4874 9.99559 20.5056 9.97781 20.5239 9.90666C20.0487 9.6043 19.5736 9.28415 19.0984 8.96401C18.4222 8.51936 18.3308 8.11028 18.7877 7.43442C20.3777 5.10445 21.9677 2.79228 23.5577 0.462321C23.9415 -0.0890437 24.5446 -0.177973 24.965 0.231104C25.3122 0.551251 25.3305 0.960328 25.0381 1.38719C23.7588 3.2725 22.4794 5.14003 21.2001 7.02534C21.0174 7.29213 20.8346 7.5767 20.6518 7.84349C20.6884 7.87906 20.725 7.91464 20.7615 7.93242C21.2367 8.39486 21.657 8.48379 22.315 8.07471C23.3019 7.4522 24.435 7.41663 25.5133 7.91464C26.9571 8.55493 27.5967 9.99559 27.1946 11.5252C27.1764 11.6141 27.1581 11.7208 27.1033 11.792C27.0119 11.9876 27.0667 12.0943 27.2495 12.2011C27.5236 12.3611 27.7795 12.539 28.0902 12.7168C28.4009 12.29 28.6933 11.8631 28.9857 11.4363C30.7219 8.96401 32.4398 6.49176 34.1761 4.00173C34.4137 3.66379 34.6512 3.36143 35.1264 3.397C35.8026 3.45036 36.1864 4.17959 35.8026 4.74874C34.9619 5.99375 34.103 7.22098 33.244 8.44822C32.0378 10.1735 30.8498 11.9165 29.6254 13.6773C29.9543 13.8907 30.265 14.1041 30.594 14.282C30.6671 14.3176 30.8133 14.2464 30.9047 14.1931C31.6357 13.7662 32.4216 13.4994 33.2805 13.5172C34.5416 13.535 35.7113 14.2998 36.1499 15.3492C36.4606 16.114 36.3144 16.861 35.9671 17.5546C35.8392 17.8214 35.894 17.9103 36.1133 18.0526C36.7895 18.4795 37.4657 18.9064 38.142 19.351C38.6537 18.604 39.1654 17.8926 39.6589 17.1811C41.8154 14.0686 43.972 10.9738 46.1468 7.87906C46.3113 7.64785 46.5306 7.39884 46.7865 7.27434C47.1155 7.09648 47.5541 7.25656 47.7917 7.54113C48.0292 7.82571 48.0475 8.25257 47.8282 8.5905C47.2434 9.44423 46.6586 10.2802 46.0737 11.1339C44.2096 13.8196 42.3271 16.523 40.463 19.2087C40.0609 19.7957 39.6589 20.3648 39.2568 20.9517C38.873 21.5209 38.3978 21.6098 37.7947 21.2363C36.7713 20.5782 35.7478 19.9202 34.7061 19.2443C32.513 21.5742 29.8264 23.1928 26.7926 24.2777C23.777 25.3449 20.6519 25.8607 17.4353 25.914C17.2525 27.3013 17.088 28.6708 16.9236 30.0404C17.9287 29.8803 18.8974 29.7024 19.866 29.5957C21.1087 29.4534 22.3881 29.2578 23.5943 29.6313C24.4715 29.9159 25.3305 30.3249 26.1529 30.7518C29.3512 32.4237 32.3667 34.4157 35.3275 36.4433C35.565 36.6034 35.7113 36.5145 35.8757 36.4255C38.8182 34.9315 41.8337 33.562 44.9223 32.3881C47.3896 31.4455 49.8934 30.5917 52.4886 30.0937C53.9141 29.8091 55.3031 29.9337 56.5458 30.734C57.6059 31.4099 58.1541 32.4059 58.2821 33.6153C58.41 34.9849 57.8983 36.1943 57.2038 37.3504C55.7783 39.7159 53.9689 41.7791 52.0134 43.7533C49.8203 45.9766 47.4444 48.022 44.9223 49.8895C44.9041 49.9073 44.8858 49.9429 44.831 49.9784C45.3792 50.0318 45.891 50.0851 46.4027 50.1563C48.8882 50.4942 51.2641 51.2234 53.5303 52.255C55.6503 53.2332 57.6424 54.4071 59.4335 55.8834C60.1279 56.4525 60.0366 57.3952 59.2507 57.822C58.8486 58.0355 58.3369 57.9821 57.9714 57.6975C54.9376 55.3142 51.5565 53.6423 47.7551 52.753C45.6351 52.255 43.5151 52.1839 41.3402 52.3617C38.2516 52.6285 35.2543 53.3933 32.2571 54.1225C30.1188 54.6383 27.9622 55.1541 25.8057 55.5988C24.4898 55.8656 23.1557 56.0434 21.8215 56.1502C20.3594 56.2747 18.8974 56.3458 17.4353 56.328C14.9497 56.2924 12.4825 55.9367 10.0701 55.3498C7.12764 54.6383 4.34969 53.5534 1.77278 52.0238C1.2976 51.7392 0.822428 51.4191 0.365529 51.0812C-0.164474 50.6899 -0.255854 49.9428 0.146217 49.4271C0.530012 48.9468 1.31588 48.8401 1.82761 49.2136C4.1121 50.9389 6.72556 52.006 9.44868 52.8242C9.668 52.8953 9.79593 52.8064 9.96041 52.6819C11.788 51.3657 13.6156 50.0674 15.4432 48.7512C15.626 48.769 15.6991 48.7156 15.7539 48.6623ZM12.9211 53.589C12.9211 53.6245 12.9394 53.6601 12.9394 53.6957C14.1273 53.8024 15.3153 53.9625 16.5032 54.0336C18.1663 54.1225 19.8477 54.087 21.5108 53.9269C23.3384 53.749 25.1477 53.4467 26.9205 53.0376C29.2233 52.504 31.5078 51.9349 33.7923 51.3835C35.8026 50.9033 37.813 50.4586 39.8782 50.2452C40.1523 50.2096 40.463 50.1919 40.6823 50.0318C42.053 49.0891 43.4237 48.1465 44.7396 47.1149C47.1337 45.2296 49.3634 43.1664 51.4469 40.9432C52.6713 39.627 53.8593 38.2753 54.8462 36.7812C55.3214 36.052 55.8148 35.305 55.9793 34.4335C56.1438 33.5798 55.7234 32.7972 54.901 32.477C54.3527 32.2636 53.7862 32.2103 53.2196 32.3525C51.7758 32.7083 50.332 33.064 48.9065 33.5086C45.5803 34.558 42.4002 35.9453 39.2751 37.4571C34.8157 39.5914 30.5026 42.0103 26.2991 44.5893C22.3881 46.9726 18.5867 49.516 14.8584 52.1661C14.2187 52.6463 13.5791 53.1265 12.9211 53.589ZM33.3354 37.8484C32.0743 37.0302 30.8681 36.2477 29.6436 35.4651C27.9257 34.3801 26.2077 33.2774 24.3436 32.4415C23.777 32.1925 23.1739 31.8901 22.5708 31.8367C21.785 31.7656 20.9808 31.8545 20.195 31.9612C18.7512 32.1747 17.3074 32.4237 15.8818 32.7083C15.2056 32.8505 14.3101 32.317 14.4197 31.4099C14.4746 31.0186 14.5111 30.6273 14.566 30.236C14.8035 28.4396 15.0411 26.6432 15.2604 24.8469C15.3518 24.0465 15.7722 23.673 16.6129 23.6374C17.7094 23.5841 18.8243 23.5485 19.9025 23.424C22.0591 23.1572 24.1608 22.6948 26.2077 21.9655C28.8029 21.0229 31.1605 19.7067 33.0612 17.6969C33.3902 17.3412 33.6643 16.9499 33.9202 16.5408C34.1212 16.2207 33.975 16.025 33.5912 15.9895C33.0612 15.9361 32.5678 15.9895 32.1109 16.274C30.9229 17.0388 29.7167 17.8036 28.5288 18.5684C27.1033 19.4933 25.5864 20.2047 23.8867 20.5249C21.7301 20.934 19.537 21.0229 17.3439 21.0762C15.1873 21.1296 13.0125 21.094 10.8559 21.1652C9.75938 21.2007 8.66282 21.343 7.58454 21.5031C6.72556 21.6276 6.12246 22.0723 5.95797 22.9616C5.77521 23.9576 5.51935 24.9536 5.37314 25.9674C5.17211 27.4614 4.98935 28.9732 4.87969 30.485C4.78831 31.6233 4.77004 32.7794 5.13556 33.8999C5.81177 35.9275 6.8535 37.7595 8.15109 39.4314C10.5818 42.5795 13.6704 44.9984 17.2891 46.777C17.8008 47.026 18.1846 47.0971 18.678 46.7058C19.2994 46.2078 19.9939 45.8165 20.6884 45.3719C20.5605 45.3007 20.4691 45.2651 20.396 45.2118C18.7146 44.447 17.1246 43.5399 15.6991 42.4016C14.6573 41.5657 13.8349 40.5874 13.4511 39.2891C13.2501 38.5954 13.3597 38.0263 13.9263 37.5816C14.237 37.3326 14.566 37.0836 14.9132 36.9057C17.088 35.7497 19.4456 35.0738 21.8215 34.4157C22.2053 34.309 22.5526 34.3979 22.8815 34.5936C25.3853 36.1587 27.8891 37.7061 30.3929 39.2535C30.466 39.3068 30.6123 39.3069 30.6854 39.2713C31.5443 38.8266 32.4033 38.3464 33.3354 37.8484ZM3.63693 13.7306C3.63693 16.363 5.75694 18.4083 8.44351 18.4083C11.0935 18.4083 13.2135 16.3274 13.2135 13.7484C13.2135 11.1339 11.0752 9.07072 8.3704 9.07072C5.75694 9.08851 3.61865 11.1695 3.63693 13.7306ZM16.0829 38.9511C16.558 39.8049 17.216 40.4451 17.9287 41.0321C19.3908 42.2415 21.1087 43.0419 22.845 43.7889C22.9546 43.8423 23.1374 43.8067 23.247 43.7355C24.2339 43.1486 25.2026 42.5439 26.1895 41.9392C26.8657 41.5301 27.5602 41.121 28.2364 40.7119C28.2181 40.6764 28.1998 40.6408 28.1815 40.6408C26.1712 39.378 24.1426 38.1152 22.1139 36.8702C22.0408 36.8346 21.9312 36.8168 21.8398 36.8524C20.2681 37.2792 18.7146 37.7239 17.2342 38.382C16.8687 38.5598 16.4849 38.7555 16.0829 38.9511ZM17.1063 18.6396C17.9105 18.6396 18.7512 18.6396 19.5918 18.6396C19.7015 18.6396 19.8294 18.5862 19.9208 18.5151C20.2315 18.2483 20.5605 17.9815 20.8163 17.6791C21.9129 16.4519 22.8084 15.0824 23.6126 13.6417C24.106 12.7702 24.6908 11.9343 24.9102 10.9205C25.0564 10.2802 24.7091 9.85331 24.0329 9.92445C23.4481 9.99559 23.046 10.3157 22.7353 10.7782C21.6022 12.4856 20.4874 14.1931 19.2994 15.8472C18.6232 16.861 17.8191 17.7681 17.1063 18.6396ZM23.5577 18.1771C25.6412 17.7858 27.286 16.5408 29.0405 15.4203C28.1267 14.8334 27.2312 14.282 26.3905 13.7306C25.4402 15.2424 24.5081 16.7009 23.5577 18.1771Z" fill="#22637E"/>
</g>
<defs>
<clipPath id="clip0_138_638">
<rect width="60" height="58" fill="white"/>
</clipPath>
</defs>
</svg>
