<svg width="39" height="38" viewBox="0 0 39 38" fill="none" xmlns="http://www.w3.org/2000/svg">
<path d="M19.3968 11.1919C14.582 11.1919 10.5926 15.012 10.5926 19.7704C10.5926 24.5288 14.5132 28.3489 19.3968 28.3489C24.2804 28.3489 28.2011 24.4617 28.2011 19.7704C28.2011 15.079 24.2116 11.1919 19.3968 11.1919ZM19.3968 25.266C16.3016 25.266 13.7566 22.7862 13.7566 19.7704C13.7566 16.7545 16.3016 14.2748 19.3968 14.2748C22.4921 14.2748 25.037 16.7545 25.037 19.7704C25.037 22.7862 22.4921 25.266 19.3968 25.266Z" fill="white"/>
<path d="M28.5449 12.9345C29.6466 12.9345 30.5397 12.0643 30.5397 10.9909C30.5397 9.91753 29.6466 9.04736 28.5449 9.04736C27.4433 9.04736 26.5502 9.91753 26.5502 10.9909C26.5502 12.0643 27.4433 12.9345 28.5449 12.9345Z" fill="white"/>
<path d="M33.7037 5.96459C31.9153 4.15507 29.3704 3.2168 26.4815 3.2168H12.3122C6.32804 3.2168 2.33862 7.10392 2.33862 12.9346V26.6736C2.33862 29.5554 3.30159 32.0351 5.22751 33.8447C7.08465 35.5872 9.56084 36.4584 12.381 36.4584H26.4127C29.3704 36.4584 31.8466 35.5201 33.6349 33.8447C35.4921 32.1022 36.455 29.6224 36.455 26.7406V12.9346C36.455 10.1198 35.4921 7.7071 33.7037 5.96459ZM33.4286 26.7406C33.4286 28.8182 32.672 30.4937 31.4339 31.633C30.1958 32.7724 28.4762 33.3755 26.4127 33.3755H12.381C10.3175 33.3755 8.59788 32.7724 7.35979 31.633C6.12169 30.4267 5.50264 28.7512 5.50264 26.6736V12.9346C5.50264 10.924 6.12169 9.24854 7.35979 8.04219C8.5291 6.90286 10.3175 6.29969 12.381 6.29969H26.5503C28.6138 6.29969 30.3333 6.90286 31.5714 8.10921C32.7407 9.31556 33.4286 10.991 33.4286 12.9346V26.7406Z" fill="white"/>
</svg>
