<svg xmlns="http://www.w3.org/2000/svg" width="123" height="46" viewBox="0 0 123 46" fill="none">
  <g clip-path="url(#clip0_1001_725)">
    <path d="M81.5793 13.6115V32.364C81.5793 33.8819 82.3959 35.2773 83.732 36.0362L100.162 45.4125C101.498 46.1714 103.131 46.1714 104.442 45.4125L120.872 36.0362C122.208 35.2773 123.025 33.8819 123.025 32.364V13.6115C123.025 12.0937 122.208 10.6983 120.872 9.93935L104.442 0.563082C103.106 -0.195832 101.473 -0.195832 100.162 0.563082L83.732 9.93935C82.3959 10.6983 81.5793 12.0937 81.5793 13.6115Z" fill="#C62127"/>
    <path d="M19.3742 11.4572H0V16.182H19.3742V11.4572Z" fill="white"/>
    <path d="M7.74091 14.3334L7.74091 34.6037H12.5164V14.3334H7.74091Z" fill="white"/>
    <path d="M113.375 32.7068L105.086 23.2081L113.177 13.9542L109.985 11.2368L102.29 20.0256L94.5944 11.2368L91.4025 13.9542L99.5184 23.2081L91.2046 32.7068L94.3965 35.4242L102.29 26.3907L110.183 35.4242L113.375 32.7068Z" fill="white"/>
    <path d="M114.983 25.95C116.445 25.95 117.631 24.7772 117.631 23.3305C117.631 21.8838 116.445 20.711 114.983 20.711C113.521 20.711 112.336 21.8838 112.336 23.3305C112.336 24.7772 113.521 25.95 114.983 25.95Z" fill="white"/>
    <path d="M89.8189 25.95C91.2811 25.95 92.4665 24.7772 92.4665 23.3305C92.4665 21.8838 91.2811 20.711 89.8189 20.711C88.3567 20.711 87.1714 21.8838 87.1714 23.3305C87.1714 24.7772 88.3567 25.95 89.8189 25.95Z" fill="white"/>
    <path d="M46.4188 11.2368C39.8865 11.2368 34.6161 16.4758 34.6161 22.9143C34.6161 29.3529 39.9113 34.5918 46.4188 34.5918C52.9264 34.5918 58.2215 29.3529 58.2215 22.9143C58.2215 16.4758 52.9264 11.2368 46.4188 11.2368ZM46.4188 29.818C42.6083 29.818 39.5401 26.7579 39.5401 23.0123C39.5401 19.2422 42.6331 16.2065 46.4188 16.2065C50.2293 16.2065 53.2975 19.2666 53.2975 23.0123C53.2975 26.7579 50.2046 29.818 46.4188 29.818Z" fill="white"/>
    <path d="M31.1768 25.289C32.9336 23.9425 34.0966 21.6168 34.0966 18.9973C34.0966 14.8356 31.1521 11.4327 27.5148 11.4327C27.3169 11.4327 27.1437 11.4327 26.9457 11.4572V11.4327H24.1744H22.9867H19.3742V16.2799L18.8298 16.1575L19.3742 16.9164V34.5673H24.1497V26.513H26.2281L31.9686 34.5673H37.8329L31.1768 25.289ZM28.5045 21.8127C27.9107 22.3513 27.1189 22.6695 26.2529 22.6695C25.3869 22.6695 24.5951 22.3513 24.0012 21.8127C23.9765 21.7882 23.927 21.7637 23.9023 21.7147V16.9899C23.9765 16.9164 24.0755 16.8185 24.1744 16.7451C24.7435 16.3044 25.4611 16.0351 26.2529 16.0351C27.0447 16.0351 27.7622 16.3044 28.3313 16.7451C29.0984 17.3571 29.618 18.2874 29.618 19.3401C29.618 20.3193 29.1726 21.2006 28.5045 21.8127Z" fill="white"/>
    <path d="M59.137 34.4694H63.8383V21.3965L76.9276 38.6312V11.6041H72.6717V24.9218L59.137 8.02982V34.4694Z" fill="white"/>
  </g>
  <defs>
    <clipPath id="clip0_1001_725">
      <rect width="123" height="46" fill="white"/>
    </clipPath>
  </defs>
</svg>