<svg width="31" height="22" viewBox="0 0 31 22" fill="none" xmlns="http://www.w3.org/2000/svg">
<path d="M22.1679 4.50262C20.8043 2.84781 19.0904 2.27055 17.2014 2.24489C13.7736 2.19358 11.2841 3.87405 9.67029 6.91428C8.75705 8.6204 7.83131 10.3137 6.50524 11.7376C5.10411 13.2385 3.44026 14.2775 1.45116 14.7522C0.988287 14.8676 0.600474 14.8035 0.425333 14.3032C0.262702 13.8542 0.500394 13.4694 1.07586 13.3411C3.82808 12.7125 5.69208 10.9038 7.13074 8.54343C7.60612 7.77375 8.00645 6.95276 8.43179 6.1446C11.134 1.03906 16.5633 -0.320706 20.8168 1.60349C22.3055 2.27055 23.3688 3.41224 24.1069 4.88746C24.4697 5.61865 24.4072 6.18308 23.9443 6.56792C23.4564 6.96559 22.9685 6.90145 22.318 6.3755C21.6424 5.81107 20.8793 5.43906 20.0161 5.8239C19.1029 6.22157 18.7401 7.08104 18.6776 8.04314C18.5149 10.4933 20.2038 12.6099 22.7934 13.123C25.0702 13.572 27.272 13.4309 29.2736 12.0711C29.6614 11.8017 30.0367 11.8017 30.3119 12.2122C30.5997 12.6484 30.4495 13.0204 30.0367 13.3026C28.0351 14.7009 25.7958 14.9831 23.4564 14.7265C21.6049 14.5213 19.9411 13.8286 18.6901 12.3405C17.3765 10.7627 16.8886 8.92827 17.4391 6.91428C18.0145 4.81049 19.6658 3.88687 21.7425 4.42565C21.8551 4.43848 21.9552 4.45131 22.1679 4.50262Z" fill="white"/>
<path d="M3.97819 17.074C4.66624 17.0612 5.31677 17.3178 5.8547 17.8437C6.05486 18.0361 6.24251 18.2414 6.43016 18.4338C7.3434 19.3959 8.08149 19.4216 8.96971 18.4466C9.63275 17.7411 10.3083 17.0997 11.3466 17.074C12.1598 17.0484 12.8603 17.2921 13.4483 17.8694C13.711 18.1259 13.9487 18.3953 14.1989 18.6391C14.8995 19.3318 15.6501 19.3318 16.3507 18.6519C16.6009 18.3953 16.8386 18.1259 17.1013 17.8822C18.2022 16.8175 19.8285 16.7918 20.9544 17.8181C21.2546 18.0875 21.5048 18.4082 21.7926 18.6775C22.4681 19.3318 23.2312 19.3318 23.9068 18.6647C24.182 18.3953 24.4197 18.1003 24.6949 17.8437C25.8333 16.779 27.4721 16.7918 28.598 17.8822C29.0484 18.3184 29.4737 18.793 29.9116 19.2548C30.2494 19.614 30.3369 20.0245 29.9742 20.3837C29.5989 20.7428 29.211 20.6146 28.8733 20.2554C28.523 19.8834 28.1852 19.5114 27.8224 19.1522C26.9842 18.2927 26.2461 18.2927 25.408 19.165C25.2078 19.3831 25.0076 19.6012 24.795 19.8064C23.6315 20.8968 21.9927 20.884 20.8418 19.7679C20.5666 19.4985 20.3289 19.2163 20.0411 18.9469C19.4281 18.3697 18.6901 18.3568 18.0771 18.9341C17.8143 19.1778 17.5767 19.4472 17.3265 19.7038C16.1005 20.9353 14.4241 20.9224 13.1981 19.691C12.9854 19.4857 12.7978 19.2548 12.5851 19.0496C11.8595 18.3312 11.1214 18.3312 10.3959 19.0496C10.1582 19.2805 9.93299 19.5498 9.6953 19.7807C8.51935 20.9096 6.86802 20.8968 5.69207 19.7551C5.42936 19.4985 5.20417 19.2291 4.94146 18.9854C4.29094 18.3568 3.54033 18.3568 2.88981 18.9982C2.48949 19.3959 2.11418 19.8321 1.72637 20.2554C1.40111 20.6146 1.01329 20.7685 0.625482 20.4221C0.212649 20.0501 0.33775 19.6268 0.688032 19.2548C1.10087 18.8058 1.52621 18.3568 1.95155 17.9207C2.502 17.3306 3.16503 17.0612 3.97819 17.074Z" fill="white"/>
</svg>
