<svg width="293" height="126" viewBox="0 0 293 126" fill="none" xmlns="http://www.w3.org/2000/svg">
<g clip-path="url(#clip0_5_69)">
<path d="M264.666 25.1801C259.128 22.3823 252.173 20.3839 248.181 16.6868C235.302 4.79624 227.316 5.39576 215.468 16.6868C205.036 26.6789 189.838 26.2792 178.891 16.5869C177.088 14.9881 175.285 13.2895 173.353 11.6908C166.785 6.49489 159.701 6.49489 153.133 11.5908C150.557 13.5893 148.239 15.7875 145.792 17.8858C135.617 25.9794 122.48 25.9794 112.306 18.0857C109.988 16.2871 108.056 14.2887 105.866 12.4901C98.5253 6.19513 90.669 6.29505 83.3279 12.69C80.7521 14.8882 78.3051 17.2863 75.4716 19.2847C66.5851 25.5797 54.0923 25.5797 45.2057 19.1848C41.9859 16.7867 39.1525 13.9889 36.0615 11.4909C29.8796 6.69473 22.4097 6.69473 16.2277 11.4909C13.3943 13.6892 11.076 16.5869 7.85626 18.3855C6.05318 19.3847 2.70461 18.8851 0.128784 18.985C0.386367 17.0865 -7.06315e-06 14.7883 1.28791 13.3894C3.60615 10.5916 6.69714 8.19354 9.65933 5.89537C19.1899 -1.49877 32.5842 -1.59869 42.3723 5.69552C43.4026 6.49489 44.433 7.39418 45.3345 8.29346C55.6378 18.7851 64.6532 19.1848 75.6004 8.19354C76.2444 7.4941 77.0171 6.89457 77.7899 6.29505C87.8356 -1.99837 101.487 -1.99837 111.662 6.19513C114.495 8.4933 116.942 11.0912 119.905 13.1896C125.443 17.1864 132.269 17.0865 137.807 13.0897C141.026 10.6916 143.86 7.89378 147.08 5.49568C156.739 -1.79853 169.618 -1.79853 179.277 5.49568C182.24 7.69394 184.687 10.2919 187.52 12.4901C193.702 17.2863 201.172 17.2863 207.354 12.4901C210.316 10.092 213.021 7.39418 216.112 5.19592C225.256 -1.59869 238.006 -1.69861 247.279 5.096C250.241 7.29425 252.817 9.79227 255.522 12.0904C262.09 17.4862 269.56 17.5861 276.257 12.2903C278.962 10.192 281.022 7.39418 284.113 5.79544C286.045 4.79624 289.265 5.29584 291.841 5.19592C291.454 7.09441 291.97 9.49251 290.682 10.7915C284.757 16.387 279.348 22.782 268.787 23.6812C267.757 23.7812 266.727 23.981 265.696 24.0809C265.31 24.3807 265.052 24.7804 264.666 25.1801Z" fill="#22637E"/>
<path d="M264.924 126C259.514 123.502 253.976 121.304 248.953 118.406C245.734 116.608 243.544 113.71 240.582 111.611C235.173 107.715 228.089 107.715 222.68 111.711C219.718 113.91 217.271 116.408 214.437 118.706C204.134 126.899 189.838 126.7 179.921 118.306C177.474 116.208 175.285 113.91 172.58 112.011C166.785 107.615 159.572 107.715 153.648 112.111C150.557 114.409 147.981 117.107 144.89 119.405C135.231 126.7 122.48 126.7 112.692 119.405C110.374 117.707 108.442 115.708 106.253 113.81C98.5253 107.015 90.669 107.015 82.8128 113.81C77.9187 118.106 73.411 122.803 65.2972 124.202C57.4409 125.6 50.8725 124.002 45.0769 120.105C42.3723 118.206 40.0541 116.008 37.607 113.91C29.4932 106.915 21.7657 107.015 13.7807 114.209C11.72 116.108 9.78814 118.406 7.21232 119.605C5.40924 120.504 2.31825 119.905 -0.128781 119.905C1.05351e-05 118.106 -0.643945 116.008 0.515175 114.709C2.96221 111.811 6.18199 109.313 9.40177 106.815C19.0611 99.2213 32.8418 99.2213 42.5011 106.915C45.4633 109.313 48.1679 111.911 51.2589 114.209C56.7969 118.206 63.6229 118.206 69.1609 114.209C71.9943 112.211 74.4413 109.813 77.0172 107.615C87.4492 98.9216 101.487 98.9216 111.92 107.515C114.367 109.613 116.556 111.911 119.132 113.81C125.056 118.206 132.14 118.206 137.935 113.81C140.898 111.612 143.345 109.113 146.307 106.815C156.224 99.0215 169.36 99.0215 179.406 106.715C181.209 108.114 182.884 109.613 184.558 111.212C193.444 119.205 200.786 119.205 209.672 111.312C211.99 109.313 214.18 107.315 216.756 105.516C225.256 99.621 237.491 99.5211 245.991 105.316C249.469 107.715 252.431 110.712 255.651 113.31C261.833 118.206 269.174 118.406 275.484 113.61C278.447 111.412 280.636 108.514 283.856 106.715C285.659 105.716 289.007 106.216 291.583 106.016C291.326 107.914 291.97 110.412 290.682 111.611C284.757 117.207 279.348 123.602 268.787 124.501C267.757 124.601 266.727 124.801 265.696 125.001C265.567 125.301 265.31 125.6 264.924 126Z" fill="#22637E"/>
<path d="M264.795 75.0405C260.158 73.242 255.264 71.6432 250.885 69.5449C248.309 68.2459 246.378 66.0477 244.317 64.1492C235.688 56.1555 228.089 56.1555 219.331 63.8494C217.271 65.7479 215.081 67.6464 212.763 69.3451C203.619 75.8399 190.997 75.9398 181.982 69.3451C179.02 67.1468 176.444 64.6488 173.739 62.3506C166.913 56.6551 159.572 56.6551 152.618 62.2507C149.913 64.4489 147.595 66.847 144.89 68.9454C135.231 76.0397 122.094 75.9398 112.564 68.6456C109.473 66.3474 106.897 63.6496 103.677 61.3514C97.4949 56.755 91.0554 56.855 85.0022 61.4513C82.4264 63.4497 80.1081 65.648 77.6611 67.7463C67.1002 76.3395 53.1908 76.3395 42.6299 67.6464C40.0541 65.4481 37.607 63.05 34.7736 61.0516C28.978 56.9549 22.796 56.9549 17.0004 61.1516C13.5231 63.6496 10.8184 66.7471 7.0835 68.9454C5.6668 69.9446 2.57581 69.3451 0.128778 69.3451C0.257569 67.5465 -0.515178 65.3482 0.643942 64.1492C3.47735 61.0516 6.95471 58.2539 10.4321 55.556C19.8338 48.5615 32.8417 48.7614 42.1147 55.8558C44.5617 57.7543 46.7512 59.8526 49.0694 61.7511C56.5393 68.146 64.0092 68.146 71.4791 61.851C73.9261 59.7527 76.2444 57.5544 78.8202 55.556C87.9644 48.7614 100.972 48.7614 110.116 55.4561C113.079 57.6543 115.655 60.1523 118.359 62.4505C125.185 67.9462 132.14 68.0461 138.966 62.6504C141.026 60.9517 142.958 59.1531 144.89 57.3546C155.451 48.1619 169.876 48.0619 180.823 57.0548C183.399 59.2531 185.846 61.5512 188.679 63.6496C194.217 67.6464 200.27 67.5465 205.937 63.6496C208.513 61.851 210.702 59.8526 212.892 57.8542C224.354 47.8621 239.165 47.962 250.499 58.2539C252.173 59.7527 253.847 61.3514 255.651 62.7503C262.348 67.9462 269.045 68.0461 275.742 62.8502C278.962 60.3522 281.666 57.5544 285.144 55.3562C286.303 54.5568 289.265 54.5568 290.682 55.1563C291.841 55.6559 292.871 57.7543 292.614 58.8534C290.811 65.2483 274.712 74.0413 264.795 75.0405Z" fill="#22637E"/>
</g>
<defs>
<clipPath id="clip0_5_69">
<rect width="293" height="126" fill="white"/>
</clipPath>
</defs>
</svg>
