<svg width="175" height="41" viewBox="0 0 175 41" fill="none" xmlns="http://www.w3.org/2000/svg">
<g clip-path="url(#clip0_138_521)">
<path d="M74.7798 8.19349C72.9652 7.2831 70.6866 6.63282 69.3784 5.42981C65.1587 1.56066 62.5424 1.75574 58.6602 5.42981C55.2422 8.6812 50.2628 8.55114 46.676 5.39729C46.0852 4.87707 45.4945 4.32434 44.8615 3.80411C42.7094 2.11339 40.3885 2.11339 38.2365 3.7716C37.3925 4.42188 36.6329 5.13718 35.8312 5.81997C32.4976 8.4536 28.1934 8.4536 24.8598 5.885C24.1002 5.29975 23.4672 4.64947 22.7499 4.06422C20.3446 2.01585 17.7705 2.04836 15.3652 4.12925C14.5213 4.84456 13.7195 5.62489 12.7912 6.27517C9.87954 8.32354 5.78635 8.32354 2.8747 6.24265C1.81975 5.46232 0.891403 4.55193 -0.121345 3.73909C-2.14684 2.17842 -4.59431 2.17842 -6.61981 3.73909C-7.54816 4.45439 -8.30772 5.39729 -9.36266 5.98254C-9.95343 6.30768 -11.0506 6.14511 -11.8945 6.17763C-11.8101 5.55986 -11.9367 4.81204 -11.5148 4.35685C-10.7552 3.44646 -9.74244 2.66613 -8.77189 1.91831C-5.64926 -0.487719 -1.26068 -0.520233 1.94635 1.85328C2.28393 2.11339 2.62151 2.40602 2.9169 2.69864C6.29272 6.1126 9.24657 6.24265 12.8334 2.66613C13.0444 2.43853 13.2976 2.24345 13.5507 2.04836C16.8422 -0.650288 21.3151 -0.650288 24.6488 2.01585C25.5771 2.76367 26.3789 3.60903 27.3494 4.29182C29.1639 5.59238 31.4004 5.55986 33.2149 4.25931C34.2699 3.47897 35.1982 2.56859 36.2532 1.78825C39.418 -0.585261 43.6378 -0.585261 46.8026 1.78825C47.7732 2.50356 48.5749 3.34892 49.5033 4.06422C51.5288 5.62489 53.9762 5.62489 56.0017 4.06422C56.9723 3.28389 57.8584 2.40602 58.8712 1.69071C61.8672 -0.520233 66.0448 -0.552747 69.083 1.6582C70.0536 2.3735 70.8976 3.18635 71.7837 3.93417C73.9358 5.68992 76.3833 5.72243 78.5776 3.9992C79.4637 3.31641 80.1389 2.40602 81.1516 1.88579C81.7846 1.56066 82.8395 1.72322 83.6835 1.69071C83.5569 2.30847 83.7257 3.08881 83.3037 3.51149C81.3626 5.33227 79.5903 7.41315 76.1301 7.70578C75.7925 7.73829 75.4549 7.80332 75.1173 7.83583C74.9907 7.93338 74.9063 8.06343 74.7798 8.19349Z" fill="#22637E"/>
<path d="M74.8642 41C73.0919 40.1872 71.2774 39.4719 69.6317 38.529C68.5767 37.9437 67.8594 37.0008 66.8888 36.318C65.1165 35.05 62.7956 35.05 61.0233 36.3505C60.0527 37.0658 59.251 37.8787 58.3226 38.6265C54.9468 41.2926 50.2629 41.2276 47.0136 38.4964C46.2119 37.8136 45.4945 37.0658 44.6084 36.4481C42.7095 35.0175 40.3464 35.05 38.4053 36.4806C37.3925 37.2284 36.5486 38.1063 35.5358 38.8541C32.371 41.2276 28.1934 41.2276 24.9864 38.8541C24.2268 38.3014 23.5939 37.6511 22.8765 37.0333C20.3446 34.8224 17.7706 34.8224 15.1965 37.0333C13.593 38.4314 12.116 39.9596 9.45759 40.4148C6.88352 40.87 4.73143 40.3497 2.83253 39.0817C1.94638 38.4639 1.18682 37.7486 0.385057 37.0658C-2.27341 34.7899 -4.80527 34.8224 -7.42154 37.1634C-8.0967 37.7811 -8.72967 38.529 -9.57363 38.9191C-10.1644 39.2117 -11.1771 39.0167 -11.9789 39.0167C-11.9367 38.4314 -12.1477 37.7486 -11.7679 37.3259C-10.9662 36.383 -9.91121 35.5702 -8.85626 34.7573C-5.69143 32.2863 -1.17626 32.2863 1.98857 34.7899C2.95912 35.5702 3.84528 36.4155 4.85802 37.1634C6.67253 38.4639 8.90902 38.4639 10.7235 37.1634C11.6519 36.5131 12.4536 35.7328 13.2976 35.0175C16.7156 32.1887 21.3152 32.1887 24.7332 34.9849C25.535 35.6677 26.2523 36.4155 27.0963 37.0333C29.0374 38.4639 31.3582 38.4639 33.2571 37.0333C34.2277 36.318 35.0295 35.5052 36 34.7573C39.2492 32.2213 43.5534 32.2213 46.8448 34.7248C47.4356 35.18 47.9842 35.6677 48.5328 36.188C51.4444 38.7891 53.8497 38.7891 56.7613 36.2205C57.5209 35.5702 58.2383 34.9199 59.0822 34.3347C61.8673 32.4163 65.8761 32.3838 68.6611 34.2696C69.8005 35.05 70.771 36.0254 71.8259 36.8707C73.8514 38.4639 76.2567 38.529 78.3244 36.9683C79.295 36.253 80.0123 35.3101 81.0673 34.7248C81.658 34.3997 82.7552 34.5623 83.5991 34.4972C83.5147 35.115 83.7257 35.9278 83.3037 36.318C81.3626 38.1388 79.5903 40.2197 76.1301 40.5123C75.7925 40.5448 75.455 40.6098 75.1174 40.6749C75.0752 40.7724 74.9908 40.87 74.8642 41Z" fill="#22637E"/>
<path d="M74.822 24.4179C73.3029 23.8327 71.6994 23.3124 70.2646 22.6296C69.4207 22.207 68.7877 21.4917 68.1126 20.8739C65.2853 18.2728 62.7956 18.2728 59.9262 20.7764C59.251 21.3941 58.5337 22.0119 57.7741 22.5646C54.778 24.678 50.6427 24.7105 47.6888 22.5646C46.7183 21.8493 45.8743 21.0365 44.9882 20.2886C42.7517 18.4354 40.3464 18.4354 38.0677 20.2561C37.1816 20.9714 36.422 21.7518 35.5359 22.4346C32.371 24.743 28.0668 24.7105 24.9442 22.337C23.9315 21.5892 23.0875 20.7113 22.0326 19.9635C20.0071 18.4679 17.8972 18.5004 15.9139 19.996C15.0699 20.6463 14.3104 21.3616 13.5086 22.0444C10.0484 24.8406 5.49101 24.8406 2.03079 22.0119C1.18684 21.2966 0.385078 20.5162 -0.543273 19.866C-2.44217 18.5329 -4.46767 18.5329 -6.36657 19.8985C-7.50591 20.7113 -8.39207 21.7193 -9.6158 22.4346C-10.08 22.7597 -11.0927 22.5646 -11.8945 22.5646C-11.8523 21.9794 -12.1055 21.2641 -11.7257 20.8739C-10.7973 19.866 -9.658 18.9556 -8.51866 18.0777C-5.43822 15.8017 -1.17624 15.8668 1.862 18.1752C2.66376 18.793 3.38112 19.4758 4.14068 20.0936C6.58815 22.1744 9.03563 22.1744 11.4831 20.1261C12.2849 19.4433 13.0444 18.728 13.8884 18.0777C16.8844 15.8668 21.1464 15.8668 24.1424 18.0452C25.113 18.7605 25.957 19.5733 26.8431 20.3212C29.0796 22.1094 31.3583 22.1419 33.5948 20.3862C34.2699 19.8334 34.9029 19.2482 35.5359 18.6629C38.9961 15.6717 43.7222 15.6392 47.309 18.5654C48.153 19.2807 48.9548 20.0285 49.8831 20.7113C51.6976 22.0119 53.6809 21.9794 55.5376 20.7113C56.3816 20.1261 57.0989 19.4758 57.8163 18.8255C61.5719 15.5741 66.4246 15.6066 70.1381 18.9556C70.6866 19.4433 71.2352 19.9635 71.826 20.4187C74.0202 22.1094 76.2145 22.1419 78.4088 20.4512C79.4638 19.6384 80.3499 18.728 81.4893 18.0127C81.869 17.7526 82.8396 17.7526 83.3038 17.9476C83.6835 18.1102 84.0211 18.793 83.9367 19.1507C83.346 21.2315 78.0712 24.0928 74.822 24.4179Z" fill="#22637E"/>
</g>
<g clip-path="url(#clip1_138_521)">
<path d="M164.78 8.19349C162.965 7.2831 160.687 6.63282 159.378 5.42981C155.159 1.56066 152.542 1.75574 148.66 5.42981C145.242 8.6812 140.263 8.55114 136.676 5.39729C136.085 4.87707 135.494 4.32434 134.862 3.80411C132.709 2.11339 130.389 2.11339 128.236 3.7716C127.393 4.42188 126.633 5.13718 125.831 5.81997C122.498 8.4536 118.193 8.4536 114.86 5.885C114.1 5.29975 113.467 4.64947 112.75 4.06422C110.345 2.01585 107.771 2.04836 105.365 4.12925C104.521 4.84456 103.72 5.62489 102.791 6.27517C99.8795 8.32354 95.7863 8.32354 92.8747 6.24265C91.8198 5.46232 90.8914 4.55193 89.8787 3.73909C87.8532 2.17842 85.4057 2.17842 83.3802 3.73909C82.4518 4.45439 81.6923 5.39729 80.6373 5.98254C80.0466 6.30768 78.9494 6.14511 78.1055 6.17763C78.1899 5.55986 78.0633 4.81204 78.4852 4.35685C79.2448 3.44646 80.2576 2.66613 81.2281 1.91831C84.3507 -0.487719 88.7393 -0.520233 91.9463 1.85328C92.2839 2.11339 92.6215 2.40602 92.9169 2.69864C96.2927 6.1126 99.2466 6.24265 102.833 2.66613C103.044 2.43853 103.298 2.24345 103.551 2.04836C106.842 -0.650288 111.315 -0.650288 114.649 2.01585C115.577 2.76367 116.379 3.60903 117.349 4.29182C119.164 5.59238 121.4 5.55986 123.215 4.25931C124.27 3.47897 125.198 2.56859 126.253 1.78825C129.418 -0.585261 133.638 -0.585261 136.803 1.78825C137.773 2.50356 138.575 3.34892 139.503 4.06422C141.529 5.62489 143.976 5.62489 146.002 4.06422C146.972 3.28389 147.858 2.40602 148.871 1.69071C151.867 -0.520233 156.045 -0.552747 159.083 1.6582C160.054 2.3735 160.898 3.18635 161.784 3.93417C163.936 5.68992 166.383 5.72243 168.578 3.9992C169.464 3.31641 170.139 2.40602 171.152 1.88579C171.785 1.56066 172.84 1.72322 173.683 1.69071C173.557 2.30847 173.726 3.08881 173.304 3.51149C171.363 5.33227 169.59 7.41315 166.13 7.70578C165.792 7.73829 165.455 7.80332 165.117 7.83583C164.991 7.93338 164.906 8.06343 164.78 8.19349Z" fill="#22637E"/>
<path d="M164.864 41C163.092 40.1872 161.277 39.4719 159.632 38.529C158.577 37.9437 157.859 37.0008 156.889 36.318C155.116 35.05 152.796 35.05 151.023 36.3505C150.053 37.0658 149.251 37.8787 148.323 38.6265C144.947 41.2926 140.263 41.2276 137.014 38.4964C136.212 37.8136 135.495 37.0658 134.608 36.4481C132.709 35.0175 130.346 35.05 128.405 36.4806C127.393 37.2284 126.549 38.1063 125.536 38.8541C122.371 41.2276 118.193 41.2276 114.986 38.8541C114.227 38.3014 113.594 37.6511 112.876 37.0333C110.345 34.8224 107.771 34.8224 105.196 37.0333C103.593 38.4314 102.116 39.9596 99.4576 40.4148C96.8835 40.87 94.7314 40.3497 92.8325 39.0817C91.9464 38.4639 91.1868 37.7486 90.3851 37.0658C87.7266 34.7899 85.1947 34.8224 82.5785 37.1634C81.9033 37.7811 81.2703 38.529 80.4264 38.9191C79.8356 39.2117 78.8229 39.0167 78.0211 39.0167C78.0633 38.4314 77.8523 37.7486 78.2321 37.3259C79.0338 36.383 80.0888 35.5702 81.1437 34.7573C84.3086 32.2863 88.8237 32.2863 91.9886 34.7899C92.9591 35.5702 93.8453 36.4155 94.858 37.1634C96.6725 38.4639 98.909 38.4639 100.724 37.1634C101.652 36.5131 102.454 35.7328 103.298 35.0175C106.716 32.1887 111.315 32.1887 114.733 34.9849C115.535 35.6677 116.252 36.4155 117.096 37.0333C119.037 38.4639 121.358 38.4639 123.257 37.0333C124.228 36.318 125.029 35.5052 126 34.7573C129.249 32.2213 133.553 32.2213 136.845 34.7248C137.436 35.18 137.984 35.6677 138.533 36.188C141.444 38.7891 143.85 38.7891 146.761 36.2205C147.521 35.5702 148.238 34.9199 149.082 34.3347C151.867 32.4163 155.876 32.3838 158.661 34.2696C159.8 35.05 160.771 36.0254 161.826 36.8707C163.851 38.4639 166.257 38.529 168.324 36.9683C169.295 36.253 170.012 35.3101 171.067 34.7248C171.658 34.3997 172.755 34.5623 173.599 34.4972C173.515 35.115 173.726 35.9278 173.304 36.318C171.363 38.1388 169.59 40.2197 166.13 40.5123C165.793 40.5448 165.455 40.6098 165.117 40.6749C165.075 40.7724 164.991 40.87 164.864 41Z" fill="#22637E"/>
<path d="M164.822 24.4179C163.303 23.8327 161.699 23.3124 160.265 22.6296C159.421 22.207 158.788 21.4917 158.113 20.8739C155.285 18.2728 152.796 18.2728 149.926 20.7764C149.251 21.3941 148.534 22.0119 147.774 22.5646C144.778 24.678 140.643 24.7105 137.689 22.5646C136.718 21.8493 135.874 21.0365 134.988 20.2886C132.752 18.4354 130.346 18.4354 128.068 20.2561C127.182 20.9714 126.422 21.7518 125.536 22.4346C122.371 24.743 118.067 24.7105 114.944 22.337C113.931 21.5892 113.087 20.7113 112.033 19.9635C110.007 18.4679 107.897 18.5004 105.914 19.996C105.07 20.6463 104.31 21.3616 103.509 22.0444C100.048 24.8406 95.491 24.8406 92.0308 22.0119C91.1868 21.2966 90.3851 20.5162 89.4567 19.866C87.5578 18.5329 85.5323 18.5329 83.6334 19.8985C82.4941 20.7113 81.6079 21.7193 80.3842 22.4346C79.92 22.7597 78.9073 22.5646 78.1055 22.5646C78.1477 21.9794 77.8945 21.2641 78.2743 20.8739C79.2027 19.866 80.342 18.9556 81.4813 18.0777C84.5618 15.8017 88.8238 15.8668 91.862 18.1752C92.6638 18.793 93.3811 19.4758 94.1407 20.0936C96.5882 22.1744 99.0356 22.1744 101.483 20.1261C102.285 19.4433 103.044 18.728 103.888 18.0777C106.884 15.8668 111.146 15.8668 114.142 18.0452C115.113 18.7605 115.957 19.5733 116.843 20.3212C119.08 22.1094 121.358 22.1419 123.595 20.3862C124.27 19.8334 124.903 19.2482 125.536 18.6629C128.996 15.6717 133.722 15.6392 137.309 18.5654C138.153 19.2807 138.955 20.0285 139.883 20.7113C141.698 22.0119 143.681 21.9794 145.538 20.7113C146.382 20.1261 147.099 19.4758 147.816 18.8255C151.572 15.5741 156.425 15.6066 160.138 18.9556C160.687 19.4433 161.235 19.9635 161.826 20.4187C164.02 22.1094 166.215 22.1419 168.409 20.4512C169.464 19.6384 170.35 18.728 171.489 18.0127C171.869 17.7526 172.84 17.7526 173.304 17.9476C173.684 18.1102 174.021 18.793 173.937 19.1507C173.346 21.2315 168.071 24.0928 164.822 24.4179Z" fill="#22637E"/>
</g>
<defs>
<clipPath id="clip0_138_521">
<rect width="96" height="41" fill="white"/>
</clipPath>
<clipPath id="clip1_138_521">
<rect width="96" height="41" fill="white" transform="translate(78.0633)"/>
</clipPath>
</defs>
</svg>
